<?xml version="1.0" encoding="UTF-8"?>
<!DOCTYPE svg PUBLIC "-//W3C//DTD SVG 1.1//EN" "http://www.w3.org/Graphics/SVG/1.1/DTD/svg11.dtd">
<svg version="1.1" xmlns="http://www.w3.org/2000/svg" xmlns:xlink="http://www.w3.org/1999/xlink" x="0px" y="0px" width="220" height="100" viewBox="0, 0, 220, 100">
  <g id="Layer 1">
    <g>
      <path d="M17.952,72.482 L17.952,38.541 C17.952,35.868 20.066,33.754 22.738,33.754 L36.496,33.754 C38.859,33.754 40.786,35.681 40.786,38.044 C40.786,40.407 38.859,42.271 36.496,42.271 L27.464,42.271 L27.464,51.098 L33.699,51.098 C36.061,51.098 37.989,53.025 37.989,55.388 C37.989,57.75 36.061,59.615 33.699,59.615 L27.464,59.615 L27.464,68.754 L36.808,68.754 C39.17,68.754 41.098,70.68 41.098,73.043 C41.098,75.404 39.17,77.27 36.808,77.27 L22.739,77.27 C20.066,77.269 17.952,75.156 17.952,72.482 z" fill="#000000"/>
      <path d="M117.918,72.482 L117.918,38.541 C117.918,35.868 120.032,33.754 122.705,33.754 L136.463,33.754 C138.825,33.754 140.752,35.681 140.752,38.044 C140.752,40.407 138.825,42.271 136.463,42.271 L127.43,42.271 L127.43,51.098 L133.667,51.098 C136.028,51.098 137.955,53.025 137.955,55.388 C137.955,57.75 136.028,59.615 133.667,59.615 L127.43,59.615 L127.43,68.754 L136.775,68.754 C139.136,68.754 141.064,70.68 141.064,73.043 C141.064,75.404 139.136,77.27 136.775,77.27 L122.706,77.27 C120.032,77.269 117.918,75.156 117.918,72.482 z" fill="#000000"/>
      <path d="M153.902,42.582 L149.881,42.582 C147.457,42.582 145.467,40.593 145.467,38.168 C145.467,35.744 147.457,33.754 149.881,33.754 L167.493,33.754 C169.917,33.754 171.907,35.743 171.907,38.168 C171.907,40.593 169.917,42.582 167.493,42.582 L163.473,42.582 L163.473,72.855 C163.473,75.529 161.36,77.642 158.688,77.642 C156.013,77.642 153.901,75.529 153.901,72.855 L153.901,42.582 z" fill="#000000"/>
      <path d="M74.383,77.977 C72.886,77.977 71.422,77.226 70.572,75.861 L48.672,40.634 C47.364,38.532 48.01,35.768 50.112,34.462 C52.211,33.155 54.976,33.799 56.283,35.901 L78.183,71.128 C79.49,73.231 78.846,75.993 76.744,77.3 C76.008,77.759 75.19,77.977 74.383,77.977 z" fill="#000000"/>
      <path d="M75.001,77.976 C72.527,77.976 70.52,75.97 70.52,73.496 L70.52,38.268 C70.52,35.793 72.528,33.787 75.001,33.787 C77.477,33.787 79.482,35.793 79.482,38.268 L79.482,73.496 C79.482,75.97 77.476,77.976 75.001,77.976 z" fill="#000000"/>
      <path d="M51.053,77.976 C48.577,77.976 46.572,75.97 46.572,73.496 L46.572,38.268 C46.572,35.793 48.578,33.787 51.053,33.787 C53.528,33.787 55.534,35.793 55.534,38.268 L55.534,73.496 C55.535,75.97 53.529,77.976 51.053,77.976 z" fill="#000000"/>
      <path d="M89.648,77.976 C87.173,77.976 85.167,75.97 85.167,73.496 L85.167,38.268 C85.167,35.793 87.174,33.787 89.648,33.787 C92.122,33.787 94.129,35.793 94.129,38.268 L94.129,73.496 C94.13,75.97 92.123,77.976 89.648,77.976 z" fill="#000000"/>
      <path d="M90.679,68.004 C89.816,68.004 88.941,67.755 88.172,67.234 C86.123,65.845 85.585,63.06 86.973,61.01 L104.068,35.755 C105.457,33.705 108.241,33.169 110.293,34.556 C112.342,35.943 112.879,38.729 111.492,40.779 L94.396,66.034 C93.529,67.314 92.117,68.004 90.679,68.004 z" fill="#000000"/>
      <path d="M109.08,77.977 C107.627,77.977 106.203,77.271 105.339,75.97 L92.433,56.495 C91.067,54.432 91.631,51.651 93.693,50.284 C95.755,48.916 98.536,49.481 99.905,51.544 L112.811,71.019 C114.178,73.082 113.614,75.863 111.551,77.23 C110.789,77.735 109.929,77.977 109.08,77.977 z" fill="#000000"/>
      <path d="M188.191,78.028 C180.549,78.028 174.333,71.811 174.333,64.17 L174.333,47.593 C174.333,39.952 180.55,33.736 188.191,33.736 C195.832,33.736 202.048,39.952 202.048,47.593 L202.048,64.17 C202.048,71.811 195.832,78.028 188.191,78.028 z M188.191,42.801 C185.548,42.801 183.398,44.95 183.398,47.593 L183.398,64.17 C183.398,66.813 185.548,68.963 188.191,68.963 C190.833,68.963 192.983,66.813 192.983,64.17 L192.983,47.593 C192.983,44.95 190.833,42.801 188.191,42.801 z" fill="#000000"/>
      <path d="M127.483,29.343 C127.45,29.343 127.416,29.343 127.382,29.342 C126.273,29.315 125.219,28.844 124.459,28.033 L118.634,21.818 C117.069,20.149 117.152,17.526 118.823,15.96 C120.492,14.395 123.116,14.48 124.68,16.15 L127.624,19.29 L137.066,10.142 C138.709,8.551 141.332,8.591 142.926,10.235 C144.519,11.879 144.477,14.503 142.833,16.095 L130.364,28.174 C129.591,28.926 128.558,29.343 127.483,29.343 z" fill="#F15A29"/>
    </g>
  </g>
  <defs/>
</svg>
